<svg xmlns="http://www.w3.org/2000/svg" width="860.13330078125" height="845.0501708984375" viewBox="-318.4325866699219 -328.4936828613281 860.13330078125 845.0501708984375"><title>Neo4j Graph Visualization</title><desc>Created using Neo4j (http://www.neo4j.com/)</desc><g class="layer relationships"><g class="relationship" transform="translate(396.8876049291338 334.2213152476109) rotate(301.1300487462386)"><path class="outline" fill="#A5ABB6" stroke="none" d="M 17.324116139070416,-18.03122292025696 L 18.031222920256962,-17.324116139070412 A 45.51856726877196 45.51856726877196 0 0 1 39.35772836753738,-29.34170929441759 L 39.119144800654894,-30.312831264930885 A 46.51856726877196 46.51856726877196 0 0 0 17.324116139070416,-18.03122292025696 Z M 57.18427523382587,-31.131585511170776 L 57.03451643563088,-30.142862950305904 A 45.51856726877196 45.51856726877196 0 0 1 79.36068546896705,-20.103711784234676 L 77.43995443248787,-17.799196154974254 L 85.05801044332124,-16.00609197065996 L 81.92166018427264,-23.17639928991524 L 80.00092914779346,-20.871883660654817 A 46.51856726877196 46.51856726877196 0 0 0 57.18427523382587,-31.131585511170776"/><text text-anchor="middle" pointer-events="none" font-size="8px" fill="#000000" x="48.13417949411573" y="-28.109004778131208" font-family="sans-serif">call</text></g><g class="relationship" transform="translate(396.8876049291338 334.2213152476109) rotate(301.1300487462386)"><path class="outline" fill="#A5ABB6" stroke="none" d="M 24.018736134675446,-6.953439040707552 L 24.277555179777966,-5.987513214418485 A 100.22506386981114 100.22506386981114 0 0 1 39.64478220524405,-8.843360289754173 L 39.539290346297555,-9.837780456331672 A 101.22506386981114 101.22506386981114 0 0 0 24.018736134675446,-6.953439040707552 Z M 57.606086407888874,-10.132602105656247 L 57.533096817963894,-9.135269403012543 A 100.22506386981114 100.22506386981114 0 0 1 72.98532275139833,-6.78234724705093 L 72.30382818208368,-3.8607782932189916 L 79.91589940522529,-5.679121410955405 L 73.89398217715119,-10.677772518826846 L 73.21248760783654,-7.756203564994908 A 101.22506386981114 101.22506386981114 0 0 0 57.606086407888874,-10.132602105656247"/><text text-anchor="middle" pointer-events="none" font-size="8px" fill="#000000" x="48.5742549497763" y="-6.889191040693518" font-family="sans-serif">call</text></g><g class="relationship" transform="translate(450.7893751724951 244.97318978060008) rotate(481.1300487462386)"><path class="outline" fill="#A5ABB6" stroke="none" d="M 24.018736134675446,-6.953439040707552 L 24.277555179777966,-5.987513214418485 A 100.22506386981114 100.22506386981114 0 0 1 39.64478220524405,-8.843360289754173 L 39.539290346297555,-9.837780456331672 A 101.22506386981114 101.22506386981114 0 0 0 24.018736134675446,-6.953439040707552 Z M 57.606086407888874,-10.132602105656247 L 57.533096817963894,-9.135269403012543 A 100.22506386981114 100.22506386981114 0 0 1 72.98532275139833,-6.78234724705093 L 72.30382818208368,-3.8607782932189916 L 79.91589940522529,-5.679121410955405 L 73.89398217715119,-10.677772518826846 L 73.21248760783654,-7.756203564994908 A 101.22506386981114 101.22506386981114 0 0 0 57.606086407888874,-10.132602105656247"/><text text-anchor="middle" pointer-events="none" font-size="8px" fill="#000000" x="48.5742549497763" y="-6.889191040693518" transform="rotate(180 48.5742549497763 -9.889191040693518)" font-family="sans-serif">call</text></g><g class="relationship" transform="translate(450.7893751724951 244.97318978060008) rotate(481.1300487462386)"><path class="outline" fill="#A5ABB6" stroke="none" d="M 17.324116139070416,-18.03122292025696 L 18.031222920256962,-17.324116139070412 A 45.51856726877196 45.51856726877196 0 0 1 39.35772836753738,-29.34170929441759 L 39.119144800654894,-30.312831264930885 A 46.51856726877196 46.51856726877196 0 0 0 17.324116139070416,-18.03122292025696 Z M 57.18427523382587,-31.131585511170776 L 57.03451643563088,-30.142862950305904 A 45.51856726877196 45.51856726877196 0 0 1 79.36068546896705,-20.103711784234676 L 77.43995443248787,-17.799196154974254 L 85.05801044332124,-16.00609197065996 L 81.92166018427264,-23.17639928991524 L 80.00092914779346,-20.871883660654817 A 46.51856726877196 46.51856726877196 0 0 0 57.18427523382587,-31.131585511170776"/><text text-anchor="middle" pointer-events="none" font-size="8px" fill="#000000" x="48.13417949411573" y="-28.109004778131208" transform="rotate(180 48.13417949411573 -31.109004778131208)" font-family="sans-serif">call</text></g><g class="relationship" transform="translate(168.8589655794749 285.7684282451119) rotate(309.5542709813005)"><path class="outline" fill="#A5ABB6" stroke="none" d="M 24.018736134675446,-6.953439040707552 L 24.277555179777966,-5.987513214418485 A 101.27073155558641 101.27073155558641 0 0 1 39.905283040788,-8.883732102849393 L 39.80078032796587,-9.878256704361505 A 102.27073155558641 102.27073155558641 0 0 0 24.018736134675446,-6.953439040707552 Z M 57.867173860166545,-10.171691599981855 L 57.7950239446423,-9.174297801279536 A 101.27073155558641 101.27073155558641 0 0 1 73.50856481352982,-6.787124722239156 L 72.82662398298297,-3.865659900675653 L 80.43897286893579,-5.682840254557089 L 74.41781925425894,-10.682411150990493 L 73.7358784237121,-7.760946329426991 A 102.27073155558641 102.27073155558641 0 0 0 57.867173860166545,-10.171691599981855"/><text text-anchor="middle" pointer-events="none" font-size="8px" fill="#000000" x="48.83560398542633" y="-6.924808629989997" font-family="sans-serif">call</text></g><g class="relationship" transform="translate(235.58666803097307 204.977290733729) rotate(489.5542709813005)"><path class="outline" fill="#A5ABB6" stroke="none" d="M 24.018736134675446,-6.953439040707552 L 24.277555179777966,-5.987513214418485 A 101.27073155558641 101.27073155558641 0 0 1 39.905283040788,-8.883732102849393 L 39.80078032796587,-9.878256704361505 A 102.27073155558641 102.27073155558641 0 0 0 24.018736134675446,-6.953439040707552 Z M 57.867173860166545,-10.171691599981855 L 57.7950239446423,-9.174297801279536 A 101.27073155558641 101.27073155558641 0 0 1 73.50856481352982,-6.787124722239156 L 72.82662398298297,-3.865659900675653 L 80.43897286893579,-5.682840254557089 L 74.41781925425894,-10.682411150990493 L 73.7358784237121,-7.760946329426991 A 102.27073155558641 102.27073155558641 0 0 0 57.867173860166545,-10.171691599981855"/><text text-anchor="middle" pointer-events="none" font-size="8px" fill="#000000" x="48.83560398542633" y="-6.924808629989997" transform="rotate(180 48.83560398542633 -9.924808629989997)" font-family="sans-serif">call</text></g><g class="relationship" transform="translate(-70.75393200570386 81.53258157578) rotate(434.35665784466704)"><path class="outline" fill="#A5ABB6" stroke="none" d="M 17.324116139070416,-18.03122292025696 L 18.031222920256962,-17.324116139070412 A 44.695330533916284 44.695330533916284 0 0 1 38.79706427095288,-29.081004498091175 L 38.55456623306532,-30.051156394250064 A 45.695330533916284 45.695330533916284 0 0 0 17.324116139070416,-18.03122292025696 Z M 56.618600151701465,-30.878363730281116 L 56.465783532542645,-29.890109167474108 A 44.695330533916284 44.695330533916284 0 0 1 78.21922948351693,-20.080308958153257 L 76.30066428349026,-17.77398990536662 L 83.92040147335686,-15.98804333355549 L 80.7773164168858,-23.155401028535444 L 78.85875121685913,-20.849081975748806 A 45.695330533916284 45.695330533916284 0 0 0 56.618600151701465,-30.878363730281116"/><text text-anchor="middle" pointer-events="none" font-size="8px" fill="#000000" x="47.568128484818686" y="-27.867762367596832" font-family="sans-serif">call</text></g><g class="relationship" transform="translate(-70.75393200570386 81.53258157578) rotate(373.2192438063269)"><path class="outline" fill="#A5ABB6" stroke="none" d="M 24.018736134675446,-6.953439040707552 L 24.277555179777966,-5.987513214418485 A 108.2843742128811 108.2843742128811 0 0 1 41.655268289703145,-9.152379493584363 L 41.55693143084627,-10.14753267887302 A 109.2843742128811 109.2843742128811 0 0 0 24.018736134675446,-6.953439040707552 Z M 59.62071391639474,-10.43198158182291 L 59.55375923548985,-9.434225564198897 A 108.2843742128811 108.2843742128811 0 0 1 77.02250540823476,-6.8180836246099 L 76.337672751404,-3.8972953351000106 L 83.9518168598963,-5.706938806923086 L 77.93561561734245,-10.712468010623088 L 77.25078296051169,-7.791679721113197 A 109.2843742128811 109.2843742128811 0 0 0 59.62071391639474,-10.43198158182291"/><text text-anchor="middle" pointer-events="none" font-size="8px" fill="#000000" x="50.590807229566565" y="-7.1637289173079495" font-family="sans-serif">call</text></g><g class="relationship" transform="translate(-70.75393200570386 81.53258157578) rotate(434.35665784466704)"><path class="outline" fill="#A5ABB6" stroke="none" d="M 24.018736134675446,-6.953439040707552 L 24.277555179777966,-5.987513214418485 A 97.97593928352835 97.97593928352835 0 0 1 39.08484890343032,-8.756216191914504 L 38.97716179778084,-9.750401027484244 A 98.97593928352835 98.97593928352835 0 0 0 24.018736134675446,-6.953439040707552 Z M 57.044834827742285,-10.048248574856444 L 56.96997582005604,-9.051054446831088 A 97.97593928352835 97.97593928352835 0 0 1 71.86048364198342,-6.771922945309269 L 71.1799628046326,-3.8501270267120553 L 78.79142759160206,-5.671006977923545 L 72.76784475845119,-10.66765083677222 L 72.08732392110036,-7.745854918175006 A 98.97593928352835 98.97593928352835 0 0 0 57.044834827742285,-10.048248574856444"/><text text-anchor="middle" pointer-events="none" font-size="8px" fill="#000000" x="48.01242823990919" y="-6.812584264315106" font-family="sans-serif">call</text></g><g class="relationship" transform="translate(34.66828977812267 106.29649922123821) rotate(496.1502966646943)"><path class="outline" fill="#A5ABB6" stroke="none" d="M 17.324116139070416,-18.03122292025696 L 18.031222920256962,-17.324116139070412 A 47.97681168348944 47.97681168348944 0 0 1 41.03520551145965,-30.11674762629692 L 40.80758000016164,-31.09049637551631 A 48.97681168348944 48.97681168348944 0 0 0 17.324116139070416,-18.03122292025696 Z M 58.87536572942109,-31.8849499913414 L 58.734086342498664,-30.894980226737033 A 47.97681168348944 47.97681168348944 0 0 1 82.77211927734898,-20.17082021080163 L 80.84517792414157,-17.871494870337774 L 88.45836863063253,-16.057844610061665 L 85.34137441495885,-23.2365873314201 L 83.41443306175144,-20.937261990956245 A 48.97681168348944 48.97681168348944 0 0 0 58.87536572942109,-31.8849499913414"/><text text-anchor="middle" pointer-events="none" font-size="8px" fill="#000000" x="49.82644892702041" y="-28.82940365796916" transform="rotate(180 49.82644892702041 -31.82940365796916)" font-family="sans-serif">call</text></g><g class="relationship" transform="translate(34.66828977812267 106.29649922123821) rotate(193.21924380632692)"><path class="outline" fill="#A5ABB6" stroke="none" d="M 24.018736134675446,-6.953439040707552 L 24.277555179777966,-5.987513214418485 A 108.2843742128811 108.2843742128811 0 0 1 41.655268289703145,-9.152379493584363 L 41.55693143084627,-10.14753267887302 A 109.2843742128811 109.2843742128811 0 0 0 24.018736134675446,-6.953439040707552 Z M 59.62071391639474,-10.43198158182291 L 59.55375923548985,-9.434225564198897 A 108.2843742128811 108.2843742128811 0 0 1 77.02250540823476,-6.8180836246099 L 76.337672751404,-3.8972953351000106 L 83.9518168598963,-5.706938806923086 L 77.93561561734245,-10.712468010623088 L 77.25078296051169,-7.791679721113197 A 109.2843742128811 109.2843742128811 0 0 0 59.62071391639474,-10.43198158182291"/><text text-anchor="middle" pointer-events="none" font-size="8px" fill="#000000" x="50.590807229566565" y="-7.1637289173079495" transform="rotate(180 50.590807229566565 -10.16372891730795)" font-family="sans-serif">call</text></g><g class="relationship" transform="translate(34.66828977812267 106.29649922123821) rotate(496.1502966646943)"><path class="outline" fill="#A5ABB6" stroke="none" d="M 24.018736134675446,-6.953439040707552 L 24.277555179777966,-5.987513214418485 A 106.94111250824179 106.94111250824179 0 0 1 41.31975575689207,-9.101198984107427 L 41.22029731855152,-10.096240701344868 A 107.94111250824179 107.94111250824179 0 0 0 24.018736134675446,-6.953439040707552 Z M 59.284567695650814,-10.382369261326545 L 59.216673121248235,-9.384676760218767 A 106.94111250824179 106.94111250824179 0 0 1 76.34893799806757,-6.8122965835236835 L 75.66464589680038,-3.891381603565634 L 83.2784549681809,-5.702434177226582 L 77.26132746642384,-10.706849890134416 L 76.57703536515665,-7.785934910176366 A 107.94111250824179 107.94111250824179 0 0 0 59.284567695650814,-10.382369261326545"/><text text-anchor="middle" pointer-events="none" font-size="8px" fill="#000000" x="50.25435442278341" y="-7.117967899402572" transform="rotate(180 50.25435442278341 -10.117967899402572)" font-family="sans-serif">call</text></g><g class="relationship" transform="translate(-42.942475777984725 180.85189576105074) rotate(254.35665784466704)"><path class="outline" fill="#A5ABB6" stroke="none" d="M 24.018736134675446,-6.953439040707552 L 24.277555179777966,-5.987513214418485 A 97.97593928352835 97.97593928352835 0 0 1 39.08484890343032,-8.756216191914504 L 38.97716179778084,-9.750401027484244 A 98.97593928352835 98.97593928352835 0 0 0 24.018736134675446,-6.953439040707552 Z M 57.044834827742285,-10.048248574856444 L 56.96997582005604,-9.051054446831088 A 97.97593928352835 97.97593928352835 0 0 1 71.86048364198342,-6.771922945309269 L 71.1799628046326,-3.8501270267120553 L 78.79142759160206,-5.671006977923545 L 72.76784475845119,-10.66765083677222 L 72.08732392110036,-7.745854918175006 A 98.97593928352835 98.97593928352835 0 0 0 57.044834827742285,-10.048248574856444"/><text text-anchor="middle" pointer-events="none" font-size="8px" fill="#000000" x="48.01242823990919" y="-6.812584264315106" transform="rotate(180 48.01242823990919 -9.812584264315106)" font-family="sans-serif">call</text></g><g class="relationship" transform="translate(-42.942475777984725 180.85189576105074) rotate(316.1502966646943)"><path class="outline" fill="#A5ABB6" stroke="none" d="M 24.018736134675446,-6.953439040707552 L 24.277555179777966,-5.987513214418485 A 106.94111250824179 106.94111250824179 0 0 1 41.31975575689207,-9.101198984107427 L 41.22029731855152,-10.096240701344868 A 107.94111250824179 107.94111250824179 0 0 0 24.018736134675446,-6.953439040707552 Z M 59.284567695650814,-10.382369261326545 L 59.216673121248235,-9.384676760218767 A 106.94111250824179 106.94111250824179 0 0 1 76.34893799806757,-6.8122965835236835 L 75.66464589680038,-3.891381603565634 L 83.2784549681809,-5.702434177226582 L 77.26132746642384,-10.706849890134416 L 76.57703536515665,-7.785934910176366 A 107.94111250824179 107.94111250824179 0 0 0 59.284567695650814,-10.382369261326545"/><text text-anchor="middle" pointer-events="none" font-size="8px" fill="#000000" x="50.25435442278341" y="-7.117967899402572" font-family="sans-serif">call</text></g><g class="relationship" transform="translate(-42.942475777984725 180.85189576105074) rotate(316.1502966646943)"><path class="outline" fill="#A5ABB6" stroke="none" d="M 17.324116139070416,-18.03122292025696 L 18.031222920256962,-17.324116139070412 A 47.97681168348944 47.97681168348944 0 0 1 41.03520551145965,-30.11674762629692 L 40.80758000016164,-31.09049637551631 A 48.97681168348944 48.97681168348944 0 0 0 17.324116139070416,-18.03122292025696 Z M 58.87536572942109,-31.8849499913414 L 58.734086342498664,-30.894980226737033 A 47.97681168348944 47.97681168348944 0 0 1 82.77211927734898,-20.17082021080163 L 80.84517792414157,-17.871494870337774 L 88.45836863063253,-16.057844610061665 L 85.34137441495885,-23.2365873314201 L 83.41443306175144,-20.937261990956245 A 48.97681168348944 48.97681168348944 0 0 0 58.87536572942109,-31.8849499913414"/><text text-anchor="middle" pointer-events="none" font-size="8px" fill="#000000" x="49.82644892702041" y="-28.82940365796916" font-family="sans-serif">call</text></g><g class="relationship" transform="translate(-42.942475777984725 180.85189576105074) rotate(254.35665784466704)"><path class="outline" fill="#A5ABB6" stroke="none" d="M 17.324116139070416,-18.03122292025696 L 18.031222920256962,-17.324116139070412 A 44.695330533916284 44.695330533916284 0 0 1 38.79706427095288,-29.081004498091175 L 38.55456623306532,-30.051156394250064 A 45.695330533916284 45.695330533916284 0 0 0 17.324116139070416,-18.03122292025696 Z M 56.618600151701465,-30.878363730281116 L 56.465783532542645,-29.890109167474108 A 44.695330533916284 44.695330533916284 0 0 1 78.21922948351693,-20.080308958153257 L 76.30066428349026,-17.77398990536662 L 83.92040147335686,-15.98804333355549 L 80.7773164168858,-23.155401028535444 L 78.85875121685913,-20.849081975748806 A 45.695330533916284 45.695330533916284 0 0 0 56.618600151701465,-30.878363730281116"/><text text-anchor="middle" pointer-events="none" font-size="8px" fill="#000000" x="47.568128484818686" y="-27.867762367596832" transform="rotate(180 47.568128484818686 -30.867762367596832)" font-family="sans-serif">call</text></g></g><g class="layer nodes"><g class="node" transform="translate(-60.42175128659409,487.556459962269)"><circle class="outline" cx="0" cy="0" r="25" fill="#4C8EDA" stroke="#2870c2" stroke-width="2px"/><text text-anchor="middle" pointer-events="none" font-family="sans-serif" dy="1.5625" font-size="25" fill="#FFFFFF"/><text text-anchor="middle" pointer-events="none" x="0" y="5" font-size="10px" fill="#FFFFFF" font-family="sans-serif"> </text></g><g class="node" transform="translate(117.4215468753317,482.62023294829464)"><circle class="outline" cx="0" cy="0" r="25" fill="#4C8EDA" stroke="#2870c2" stroke-width="2px"/><text text-anchor="middle" pointer-events="none" font-family="sans-serif" dy="1.5625" font-size="25" fill="#FFFFFF"/><text text-anchor="middle" pointer-events="none" x="0" y="5" font-size="10px" fill="#FFFFFF" font-family="sans-serif"> </text></g><g class="node" transform="translate(281.75846028196753,459.9133737789656)"><circle class="outline" cx="0" cy="0" r="25" fill="#4C8EDA" stroke="#2870c2" stroke-width="2px"/><text text-anchor="middle" pointer-events="none" font-family="sans-serif" dy="1.5625" font-size="25" fill="#FFFFFF"/><text text-anchor="middle" pointer-events="none" x="0" y="5" font-size="10px" fill="#FFFFFF" font-family="sans-serif"> </text></g><g class="node" transform="translate(396.8876049291338,334.2213152476109)"><circle class="outline" cx="0" cy="0" r="25" fill="#4C8EDA" stroke="#2870c2" stroke-width="2px"/><text text-anchor="middle" pointer-events="none" font-family="sans-serif" dy="1.5625" font-size="25" fill="#FFFFFF"/><text text-anchor="middle" pointer-events="none" x="0" y="5" font-size="10px" fill="#FFFFFF" font-family="sans-serif"> </text></g><g class="node" transform="translate(450.7893751724951,244.97318978060008)"><circle class="outline" cx="0" cy="0" r="25" fill="#4C8EDA" stroke="#2870c2" stroke-width="2px"/><text text-anchor="middle" pointer-events="none" font-family="sans-serif" dy="1.5625" font-size="25" fill="#FFFFFF"/><text text-anchor="middle" pointer-events="none" x="0" y="5" font-size="10px" fill="#FFFFFF" font-family="sans-serif"> </text></g><g class="node" transform="translate(168.8589655794749,285.7684282451119)"><circle class="outline" cx="0" cy="0" r="25" fill="#4C8EDA" stroke="#2870c2" stroke-width="2px"/><text text-anchor="middle" pointer-events="none" font-family="sans-serif" dy="1.5625" font-size="25" fill="#FFFFFF"/><text text-anchor="middle" pointer-events="none" x="0" y="5" font-size="10px" fill="#FFFFFF" font-family="sans-serif"> </text></g><g class="node" transform="translate(217.78162198377666,20.805386457138805)"><circle class="outline" cx="0" cy="0" r="25" fill="#4C8EDA" stroke="#2870c2" stroke-width="2px"/><text text-anchor="middle" pointer-events="none" font-family="sans-serif" dy="1.5625" font-size="25" fill="#FFFFFF"/><text text-anchor="middle" pointer-events="none" x="0" y="5" font-size="10px" fill="#FFFFFF" font-family="sans-serif"> </text></g><g class="node" transform="translate(512.700773811867,66.29088225224062)"><circle class="outline" cx="0" cy="0" r="25" fill="#4C8EDA" stroke="#2870c2" stroke-width="2px"/><text text-anchor="middle" pointer-events="none" font-family="sans-serif" dy="1.5625" font-size="25" fill="#FFFFFF"/><text text-anchor="middle" pointer-events="none" x="0" y="5" font-size="10px" fill="#FFFFFF" font-family="sans-serif"> </text></g><g class="node" transform="translate(366.8931591086132,45.869084030249375)"><circle class="outline" cx="0" cy="0" r="25" fill="#4C8EDA" stroke="#2870c2" stroke-width="2px"/><text text-anchor="middle" pointer-events="none" font-family="sans-serif" dy="1.5625" font-size="25" fill="#FFFFFF"/><text text-anchor="middle" pointer-events="none" x="0" y="5" font-size="10px" fill="#FFFFFF" font-family="sans-serif"> </text></g><g class="node" transform="translate(439.12512287037384,-124.87986633402541)"><circle class="outline" cx="0" cy="0" r="25" fill="#4C8EDA" stroke="#2870c2" stroke-width="2px"/><text text-anchor="middle" pointer-events="none" font-family="sans-serif" dy="1.5625" font-size="25" fill="#FFFFFF"/><text text-anchor="middle" pointer-events="none" x="0" y="5" font-size="10px" fill="#FFFFFF" font-family="sans-serif"> </text></g><g class="node" transform="translate(189.7119817090553,-299.49367462487135)"><circle class="outline" cx="0" cy="0" r="25" fill="#4C8EDA" stroke="#2870c2" stroke-width="2px"/><text text-anchor="middle" pointer-events="none" font-family="sans-serif" dy="1.5625" font-size="25" fill="#FFFFFF"/><text text-anchor="middle" pointer-events="none" x="0" y="5" font-size="10px" fill="#FFFFFF" font-family="sans-serif"> </text></g><g class="node" transform="translate(301.356765774883,-187.32835935643652)"><circle class="outline" cx="0" cy="0" r="25" fill="#4C8EDA" stroke="#2870c2" stroke-width="2px"/><text text-anchor="middle" pointer-events="none" font-family="sans-serif" dy="1.5625" font-size="25" fill="#FFFFFF"/><text text-anchor="middle" pointer-events="none" x="0" y="5" font-size="10px" fill="#FFFFFF" font-family="sans-serif"> </text></g><g class="node" transform="translate(29.037872666429305,-266.21036696551334)"><circle class="outline" cx="0" cy="0" r="25" fill="#4C8EDA" stroke="#2870c2" stroke-width="2px"/><text text-anchor="middle" pointer-events="none" font-family="sans-serif" dy="1.5625" font-size="25" fill="#FFFFFF"/><text text-anchor="middle" pointer-events="none" x="0" y="5" font-size="10px" fill="#FFFFFF" font-family="sans-serif"> </text></g><g class="node" transform="translate(143.68074474083036,-115.12076606518924)"><circle class="outline" cx="0" cy="0" r="25" fill="#4C8EDA" stroke="#2870c2" stroke-width="2px"/><text text-anchor="middle" pointer-events="none" font-family="sans-serif" dy="1.5625" font-size="25" fill="#FFFFFF"/><text text-anchor="middle" pointer-events="none" x="0" y="5" font-size="10px" fill="#FFFFFF" font-family="sans-serif"> </text></g><g class="node" transform="translate(-129.21502102515865,-232.58912032414673)"><circle class="outline" cx="0" cy="0" r="25" fill="#4C8EDA" stroke="#2870c2" stroke-width="2px"/><text text-anchor="middle" pointer-events="none" font-family="sans-serif" dy="1.5625" font-size="25" fill="#FFFFFF"/><text text-anchor="middle" pointer-events="none" x="0" y="5" font-size="10px" fill="#FFFFFF" font-family="sans-serif"> </text></g><g class="node" transform="translate(-229.9499955119271,-104.76614559278288)"><circle class="outline" cx="0" cy="0" r="25" fill="#4C8EDA" stroke="#2870c2" stroke-width="2px"/><text text-anchor="middle" pointer-events="none" font-family="sans-serif" dy="1.5625" font-size="25" fill="#FFFFFF"/><text text-anchor="middle" pointer-events="none" x="0" y="5" font-size="10px" fill="#FFFFFF" font-family="sans-serif"> </text></g><g class="node" transform="translate(-289.4325768168853,41.12801800556214)"><circle class="outline" cx="0" cy="0" r="25" fill="#4C8EDA" stroke="#2870c2" stroke-width="2px"/><text text-anchor="middle" pointer-events="none" font-family="sans-serif" dy="1.5625" font-size="25" fill="#FFFFFF"/><text text-anchor="middle" pointer-events="none" x="0" y="5" font-size="10px" fill="#FFFFFF" font-family="sans-serif"> </text></g><g class="node" transform="translate(-27.250514346571332,-86.06106015364462)"><circle class="outline" cx="0" cy="0" r="25" fill="#4C8EDA" stroke="#2870c2" stroke-width="2px"/><text text-anchor="middle" pointer-events="none" font-family="sans-serif" dy="1.5625" font-size="25" fill="#FFFFFF"/><text text-anchor="middle" pointer-events="none" x="0" y="5" font-size="10px" fill="#FFFFFF" font-family="sans-serif"> </text></g><g class="node" transform="translate(-271.28785023194274,198.71295634775666)"><circle class="outline" cx="0" cy="0" r="25" fill="#4C8EDA" stroke="#2870c2" stroke-width="2px"/><text text-anchor="middle" pointer-events="none" font-family="sans-serif" dy="1.5625" font-size="25" fill="#FFFFFF"/><text text-anchor="middle" pointer-events="none" x="0" y="5" font-size="10px" fill="#FFFFFF" font-family="sans-serif"> </text></g><g class="node" transform="translate(235.58666803097307,204.977290733729)"><circle class="outline" cx="0" cy="0" r="25" fill="#4C8EDA" stroke="#2870c2" stroke-width="2px"/><text text-anchor="middle" pointer-events="none" font-family="sans-serif" dy="1.5625" font-size="25" fill="#FFFFFF"/><text text-anchor="middle" pointer-events="none" x="0" y="5" font-size="10px" fill="#FFFFFF" font-family="sans-serif"> </text></g><g class="node" transform="translate(-70.75393200570386,81.53258157578)"><circle class="outline" cx="0" cy="0" r="25" fill="#4C8EDA" stroke="#2870c2" stroke-width="2px"/><text text-anchor="middle" pointer-events="none" font-family="sans-serif" dy="1.5625" font-size="25" fill="#FFFFFF"/><text text-anchor="middle" pointer-events="none" x="0" y="5" font-size="10px" fill="#FFFFFF" font-family="sans-serif"> </text></g><g class="node" transform="translate(34.66828977812267,106.29649922123821)"><circle class="outline" cx="0" cy="0" r="25" fill="#4C8EDA" stroke="#2870c2" stroke-width="2px"/><text text-anchor="middle" pointer-events="none" font-family="sans-serif" dy="1.5625" font-size="25" fill="#FFFFFF"/><text text-anchor="middle" pointer-events="none" x="0" y="5" font-size="10px" fill="#FFFFFF" font-family="sans-serif"> </text></g><g class="node" transform="translate(-42.942475777984725,180.85189576105074)"><circle class="outline" cx="0" cy="0" r="25" fill="#4C8EDA" stroke="#2870c2" stroke-width="2px"/><text text-anchor="middle" pointer-events="none" font-family="sans-serif" dy="1.5625" font-size="25" fill="#FFFFFF"/><text text-anchor="middle" pointer-events="none" x="0" y="5" font-size="10px" fill="#FFFFFF" font-family="sans-serif"> </text></g><g class="node" transform="translate(-24.380642021232408,351.1296832928914)"><circle class="outline" cx="0" cy="0" r="25" fill="#4C8EDA" stroke="#2870c2" stroke-width="2px"/><text text-anchor="middle" pointer-events="none" font-family="sans-serif" dy="1.5625" font-size="25" fill="#FFFFFF"/><text text-anchor="middle" pointer-events="none" x="0" y="5" font-size="10px" fill="#FFFFFF" font-family="sans-serif"> </text></g><g class="node" transform="translate(-206.7510491357954,343.4667679320059)"><circle class="outline" cx="0" cy="0" r="25" fill="#4C8EDA" stroke="#2870c2" stroke-width="2px"/><text text-anchor="middle" pointer-events="none" font-family="sans-serif" dy="1.5625" font-size="25" fill="#FFFFFF"/><text text-anchor="middle" pointer-events="none" x="0" y="5" font-size="10px" fill="#FFFFFF" font-family="sans-serif"> </text></g></g></svg>